# xmcd CD database file
#
# Track frame offsets:
#	187
#	14907
#	31492
#	49710
#	63525
#	79082
#	94732
#	109745
#	124227
#	138382
#
# Disc length: 2067 seconds
#
# Revision: 0
# Processed by: cddbd v1.5PL3 Copyright (c) Steve Scherf et al.
# Submitted via: CDex 1.51
#
DISCID=8b08110a
DTITLE=PumpKin - エルとプルー
DYEAR=1989
DGENRE=Pop
TTITLE0=恋はおまかせ
TTITLE1=飛べない小鳥
TTITLE2=ハートのキーホルダー
TTITLE3=エルプルたいそう
TTITLE4=エルプル音頭
TTITLE5=エルプルのうた
TTITLE6=イージーワールド
TTITLE7=レッドハット
TTITLE8=双子のマーチ
TTITLE9=エルランドへ
EXTD=YEAR: 1989
EXTT0=
EXTT1=
EXTT2=
EXTT3=
EXTT4=
EXTT5=
EXTT6=
EXTT7=
EXTT8=
EXTT9=
PLAYORDER=
